<svg height="100%" version="1.1" width="100%" xmlns="http://www.w3.org/2000/svg" preserveAspectRatio="xMidYMid meet" viewBox="0 0 600 442" xmlns:xlink="http://www.w3.org/1999/xlink"><desc>Created with Snap</desc><defs/><g id="root" contentwidth="263" contentheight="267.2">
          <rect class="background" height="2000%" width="2000%" y="-1000%" x="-1000%" style="" fill="#ffffff"/>
          <rect class="watermarklayer" height="100%" width="100%" y="0" x="0" style="" fill="none"/>
          <g class="content" id="content" transform="matrix(1,0,0,1,0.5,-0.6)">
            <g class="icon">
            <svg height="213" version="1.1" width="213" xmlns="http://www.w3.org/2000/svg" x="193" y="88" preserveAspectRatio="none" transform="matrix(1,0,0,1,0,0)"><desc>Created with Snap</desc><defs/><svg xmlns="http://www.w3.org/2000/svg" viewBox="193 88 213 213"><path d="M405.902 194.33c0 58.724-47.606 106.33-106.33 106.33-58.725 0-106.33-47.606-106.33-106.33S240.847 88 299.572 88c58.724 0 106.33 47.606 106.33 106.33" id="prefix-AIf-Fill-1" fill="#E45860"/></svg></svg><svg height="156" version="1.1" width="157" xmlns="http://www.w3.org/2000/svg" x="221" y="133" preserveAspectRatio="none" transform="matrix(1,0,0,1,0,0)"><desc>Created with Snap</desc><defs/><svg xmlns="http://www.w3.org/2000/svg" viewBox="221 133 157 156"><path d="M303.167 288.807h-6.794c-41.426 0-75.009-33.583-75.009-75.01v-5.73c0-41.426 33.583-75.01 75.01-75.01h6.793c41.426 0 75.01 33.584 75.01 75.01v5.73c0 41.427-33.584 75.01-75.01 75.01" id="prefix-fYu-Fill-3" fill="#FCFDF6"/></svg></svg><svg height="44" version="1.1" width="43" xmlns="http://www.w3.org/2000/svg" x="329" y="130" preserveAspectRatio="none" transform="matrix(1,0,0,1,0,0)"><desc>Created with Snap</desc><defs/><svg xmlns="http://www.w3.org/2000/svg" viewBox="329 130 43 44"><path d="m372.136 137.997-1.943 29.393c-.395 5.96-7.344 9-11.989 5.243l-26.394-21.35c-4.644-3.757-3.124-11.188 2.623-12.819l28.338-8.043c4.901-1.39 9.701 2.492 9.365 7.576" id="prefix-FC7-Fill-5" fill="#E39433"/></svg></svg><svg height="48" version="1.1" width="47" xmlns="http://www.w3.org/2000/svg" x="327" y="128" preserveAspectRatio="none" transform="matrix(1,0,0,1,0,0)"><desc>Created with Snap</desc><defs/><svg xmlns="http://www.w3.org/2000/svg" viewBox="327 128 47 48"><path d="m362.197 128.4-28.338 8.043c-7.385 2.096-9.339 11.646-3.37 16.474l26.393 21.35c5.97 4.828 14.9.922 15.408-6.738l1.943-29.393c.432-6.534-5.737-11.524-12.036-9.736Zm7.842 9.459-1.943 29.393c-.282 4.26-5.25 6.433-8.57 3.747l-26.394-21.35c-3.32-2.685-2.233-7.997 1.875-9.163l28.338-8.043c3.503-.994 6.934 1.781 6.694 5.416Z" id="prefix-hJW-Stroke-7" fill="#340B04" fill-rule="nonzero"/></svg></svg><svg height="26" version="1.1" width="25" xmlns="http://www.w3.org/2000/svg" x="340" y="138" preserveAspectRatio="none" transform="matrix(1,0,0,1,0,0)"><desc>Created with Snap</desc><defs/><svg xmlns="http://www.w3.org/2000/svg" viewBox="340 138 25 26"><path d="m365.02 142.126-1.13 17.097c-.23 3.467-4.271 5.235-6.973 3.05l-15.352-12.419c-2.702-2.185-1.817-6.508 1.525-7.456l16.483-4.679c2.85-.809 5.644 1.45 5.448 4.407" id="prefix-Piq-Fill-9" fill="#FDFBFC"/></svg></svg><svg height="44" version="1.1" width="43" xmlns="http://www.w3.org/2000/svg" x="227" y="130" preserveAspectRatio="none" transform="matrix(1,0,0,1,0,0)"><desc>Created with Snap</desc><defs/><svg xmlns="http://www.w3.org/2000/svg" viewBox="227 130 43 44"><path d="m227.291 137.997 1.943 29.393c.395 5.96 7.344 9 11.989 5.243l26.394-21.35c4.644-3.757 3.124-11.188-2.623-12.819l-28.338-8.043c-4.901-1.39-9.701 2.492-9.365 7.576" id="prefix-l6K-Fill-11" fill="#E39433"/></svg></svg><svg height="26" version="1.1" width="25" xmlns="http://www.w3.org/2000/svg" x="234" y="138" preserveAspectRatio="none" transform="matrix(1,0,0,1,0,0)"><desc>Created with Snap</desc><defs/><svg xmlns="http://www.w3.org/2000/svg" viewBox="234 138 25 26"><path d="m234.406 142.126 1.13 17.097c.23 3.467 4.272 5.235 6.974 3.05l15.352-12.419c2.702-2.185 1.817-6.508-1.525-7.456l-16.483-4.679c-2.85-.809-5.644 1.45-5.448 4.407" id="prefix-Q93-Fill-13" fill="#FDFBFC"/></svg></svg><svg height="48" version="1.1" width="47" xmlns="http://www.w3.org/2000/svg" x="225" y="128" preserveAspectRatio="none" transform="matrix(1,0,0,1,0,0)"><desc>Created with Snap</desc><defs/><svg xmlns="http://www.w3.org/2000/svg" viewBox="225 128 47 48"><path d="m225.194 138.136 1.943 29.393c.508 7.66 9.439 11.566 15.408 6.738l26.394-21.35c5.968-4.828 4.014-14.378-3.371-16.474L237.23 128.4c-6.299-1.788-12.468 3.202-12.036 9.736Zm10.888-5.693 28.338 8.043c4.108 1.166 5.195 6.478 1.875 9.164L239.901 171c-3.32 2.685-8.288.512-8.57-3.749l-1.943-29.392c-.24-3.635 3.19-6.41 6.694-5.416Z" id="prefix-SgF-Stroke-15" fill="#340B04" fill-rule="nonzero"/></svg></svg><svg height="71" version="1.1" width="153" xmlns="http://www.w3.org/2000/svg" x="223" y="133" preserveAspectRatio="none" transform="matrix(1,0,0,1,0,0)"><desc>Created with Snap</desc><defs/><svg xmlns="http://www.w3.org/2000/svg" viewBox="223 133 153 71"><path d="M375.804 187.706c-19.457 0-17.789 16.308-37.246 16.308s-19.457-16.812-38.914-16.812c-19.454 0-19.454 16.812-38.908 16.812s-18.059-16.773-37.513-16.773l7.09-16.5 13.711-18.13 20.685-13.015 14.875-4.416 21.963-2.092 17.664 2.441 11.272 2.673 11.737 5.345 13.248 10.575 10.923 15.456 6.16 10.11 3.253 8.018Z" id="prefix-NYB-Fill-17" fill="#E39433"/></svg></svg><svg height="160" version="1.1" width="161" xmlns="http://www.w3.org/2000/svg" x="219" y="132" preserveAspectRatio="none" transform="matrix(1,0,0,1,0,0)"><desc>Created with Snap</desc><defs/><svg xmlns="http://www.w3.org/2000/svg" viewBox="219 132 161 160"><path d="M303.167 131.654h-6.794c-42.586 0-77.11 34.523-77.11 77.11v5.731c0 42.587 34.524 77.11 77.11 77.11h6.794c42.587 0 77.11-34.523 77.11-77.11v-5.73c0-42.588-34.523-77.111-77.11-77.111Zm-6.794 4.203h6.794c40.266 0 72.908 32.642 72.908 72.907v5.731c0 40.265-32.642 72.908-72.908 72.908h-6.794c-40.265 0-72.907-32.643-72.907-72.908v-5.73c0-40.266 32.642-72.908 72.907-72.908Z" id="prefix-Bee-Stroke-19" fill="#1A0507" fill-rule="nonzero"/></svg></svg><svg height="107" version="1.1" width="258" xmlns="http://www.w3.org/2000/svg" x="170" y="216" preserveAspectRatio="none" transform="matrix(1,0,0,1,0,0)"><desc>Created with Snap</desc><defs/><svg xmlns="http://www.w3.org/2000/svg" viewBox="170 216 258 107"><path d="M408.008 323.67H190.439c-11.288 0-20.439-9.152-20.439-20.439v-66.368c0-11.288 9.151-20.438 20.439-20.438h217.569c11.288 0 20.438 9.15 20.438 20.438v66.368c0 11.287-9.15 20.438-20.438 20.438" id="prefix-S8z-Fill-21" fill="#7D564E"/></svg></svg><svg height="111" version="1.1" width="263" xmlns="http://www.w3.org/2000/svg" x="168" y="214" preserveAspectRatio="none" transform="matrix(1,0,0,1,0,0)"><desc>Created with Snap</desc><defs/><svg xmlns="http://www.w3.org/2000/svg" viewBox="168 214 263 111"><path d="M408.008 214.324H190.439c-12.449 0-22.54 10.09-22.54 22.54v66.367c0 12.448 10.092 22.54 22.54 22.54h217.569c12.448 0 22.54-10.092 22.54-22.54v-66.368c0-12.448-10.091-22.54-22.54-22.54Zm-217.569 4.203h217.569c10.127 0 18.337 8.209 18.337 18.336v66.368c0 10.127-8.21 18.337-18.337 18.337H190.439c-10.127 0-18.338-8.21-18.338-18.337v-66.368c0-10.127 8.21-18.336 18.338-18.336Z" id="prefix-gvC-Stroke-23" fill="#331E1D" fill-rule="nonzero"/></svg></svg><svg height="10" version="1.1" width="10" xmlns="http://www.w3.org/2000/svg" x="183" y="228" preserveAspectRatio="none" transform="matrix(1,0,0,1,0,0)"><desc>Created with Snap</desc><defs/><svg xmlns="http://www.w3.org/2000/svg" viewBox="183 228 10 10"><path d="M193.068 233.027a4.88 4.88 0 1 1-9.761 0 4.88 4.88 0 0 1 9.76 0" id="prefix-7uR-Fill-25" fill="#FEFEFE"/></svg></svg><svg height="10" version="1.1" width="10" xmlns="http://www.w3.org/2000/svg" x="183" y="305" preserveAspectRatio="none" transform="matrix(1,0,0,1,0,0)"><desc>Created with Snap</desc><defs/><svg xmlns="http://www.w3.org/2000/svg" viewBox="183 305 10 10"><path d="M193.068 310.073a4.88 4.88 0 1 1-9.761 0 4.88 4.88 0 0 1 9.76 0" id="prefix-CL4-Fill-27" fill="#FEFEFE"/></svg></svg><svg height="10" version="1.1" width="10" xmlns="http://www.w3.org/2000/svg" x="406" y="228" preserveAspectRatio="none" transform="matrix(1,0,0,1,0,0)"><desc>Created with Snap</desc><defs/><svg xmlns="http://www.w3.org/2000/svg" viewBox="406 228 10 10"><path d="M415.49 233.027a4.88 4.88 0 1 1-9.762 0 4.88 4.88 0 0 1 9.761 0" id="prefix-iQD-Fill-29" fill="#FEFEFE"/></svg></svg><svg height="10" version="1.1" width="10" xmlns="http://www.w3.org/2000/svg" x="406" y="305" preserveAspectRatio="none" transform="matrix(1,0,0,1,0,0)"><desc>Created with Snap</desc><defs/><svg xmlns="http://www.w3.org/2000/svg" viewBox="406 305 10 10"><path d="M415.49 310.073a4.88 4.88 0 1 1-9.762 0 4.88 4.88 0 0 1 9.761 0" id="prefix-eYv-Fill-31" fill="#FEFEFE"/></svg></svg><svg height="8" version="1.1" width="71" xmlns="http://www.w3.org/2000/svg" x="262" y="153" preserveAspectRatio="none" transform="matrix(1,0,0,1,0,0)"><desc>Created with Snap</desc><defs/><svg xmlns="http://www.w3.org/2000/svg" viewBox="262 153 71 8"><path d="M269.655 153.86c3.438 1.292 5.686 3.776 5.02 5.55-.666 1.776-3.993 2.169-7.432.878-3.438-1.29-5.686-3.774-5.02-5.55.666-1.774 3.993-2.167 7.432-.877Zm55.514 0c3.439-1.29 6.766-.896 7.432.879.666 1.775-1.582 4.259-5.02 5.549-3.439 1.29-6.766.898-7.432-.877-.666-1.775 1.582-4.26 5.02-5.55Z" id="prefix-09m-形状结合" fill="#FEFEFE"/></svg></svg><svg height="13" version="1.1" width="95" xmlns="http://www.w3.org/2000/svg" x="250" y="170" preserveAspectRatio="none" transform="matrix(1,0,0,1,0,0)"><desc>Created with Snap</desc><defs/><svg xmlns="http://www.w3.org/2000/svg" viewBox="250 170 95 13"><path d="M277.383 179.166a2.101 2.101 0 1 1-3.425 2.438c-5.805-8.156-11.303-9.051-16.627-5.693l-.437.285a16.418 16.418 0 0 0-2.11 1.684l-.411.403-.293.306-.193.215-.042.05a2.102 2.102 0 0 1-3.255-2.658c.664-.814 1.822-1.963 3.413-3.108 7.384-5.31 15.819-4.544 23.38 6.078Zm63.438-6.078c1.59 1.145 2.749 2.294 3.413 3.108a2.102 2.102 0 0 1-3.147 2.781l-.203-.234-.14-.154-.293-.306-.12-.12a16.384 16.384 0 0 0-2.4-1.967l-.438-.285c-5.324-3.358-10.822-2.463-16.627 5.693a2.101 2.101 0 1 1-3.425-2.438c7.561-10.622 15.996-11.387 23.38-6.078Z" id="prefix-5li-形状结合" fill="#340B04" fill-rule="nonzero"/></svg></svg><svg height="24" version="1.1" width="19" xmlns="http://www.w3.org/2000/svg" x="290" y="203" preserveAspectRatio="none" transform="matrix(1,0,0,1,0,0)"><desc>Created with Snap</desc><defs/><svg xmlns="http://www.w3.org/2000/svg" viewBox="290 203 19 24"><path d="M308.25 208.542c.47 1.112.73 2.334.73 3.617v6.115a9.292 9.292 0 0 1-18.583 0v-6.115a9.301 9.301 0 0 1 .64-3.399l5.863-3.507 2.09-2.09 5.579 3.136 3.68 2.243Z" id="prefix-PRV-Fill-45" fill="#E6584D"/></svg></svg><svg height="47" version="1.1" width="38" xmlns="http://www.w3.org/2000/svg" x="279" y="184" preserveAspectRatio="none" transform="matrix(1,0,0,1,0,0)"><desc>Created with Snap</desc><defs/><svg xmlns="http://www.w3.org/2000/svg" viewBox="279 184 38 47"><path d="M307.318 184.341c4.958 0 7.16 6.235 3.3 9.348l-8.05 6.495a5.243 5.243 0 0 1-1.918.981 6.38 6.38 0 0 0 12.716-.505l.004-.23a2.102 2.102 0 0 1 4.203 0c0 5.039-3.52 9.254-8.234 10.323.22.811.347 1.65.378 2.505l.007.412v6.115c0 6.184-5.014 11.197-11.197 11.197-6.087 0-11.04-4.855-11.195-10.904l-.004-.293v-6.115c0-.979.126-1.941.372-2.87-4.824-.986-8.453-5.254-8.453-10.37a2.102 2.102 0 0 1 4.203 0 6.382 6.382 0 0 0 12.763 0l-.001-.059a5.3 5.3 0 0 1-.246-.187l-8.052-6.495c-3.859-3.113-1.657-9.348 3.301-9.348h16.103Zm-8.908 22.29a10.581 10.581 0 0 1-6.719 4.221 1.922 1.922 0 0 1-.04.115 7.368 7.368 0 0 0-.502 2.353l-.008.35v6.115a7.385 7.385 0 0 0 14.766.244l.004-.244v-6.115c0-.967-.185-1.905-.54-2.778a10.578 10.578 0 0 1-6.961-4.26Z" id="prefix-5zJ-形状结合" fill="#080705"/></svg></svg><svg height="2" version="1.1" width="6" xmlns="http://www.w3.org/2000/svg" x="303" y="187" preserveAspectRatio="none" transform="matrix(1,0,0,1,0,0)"><desc>Created with Snap</desc><defs/><svg xmlns="http://www.w3.org/2000/svg" viewBox="303 187 6 2"><path d="M309.167 188.205c0 .532-1.446.964-3.229.964-1.783 0-3.228-.432-3.228-.964s1.445-.964 3.228-.964c1.783 0 3.23.432 3.23.964" id="prefix-HRV-Fill-43" fill="#FCFDF6"/></svg></svg><svg height="33" version="1.1" width="33" xmlns="http://www.w3.org/2000/svg" x="203" y="201" preserveAspectRatio="none" transform="matrix(1,0,0,1,0,0)"><desc>Created with Snap</desc><defs/><svg xmlns="http://www.w3.org/2000/svg" viewBox="203 201 33 33"><path d="M236.471 217.688c0 9.242-7.492 16.734-16.734 16.734s-16.734-7.492-16.734-16.734 7.492-16.734 16.734-16.734 16.734 7.492 16.734 16.734" id="prefix-gAo-Fill-53" fill="#FBFCFA"/></svg></svg><svg height="16" version="1.1" width="32" xmlns="http://www.w3.org/2000/svg" x="204" y="201" preserveAspectRatio="none" transform="matrix(1,0,0,1,0,0)"><desc>Created with Snap</desc><defs/><svg xmlns="http://www.w3.org/2000/svg" viewBox="204 201 32 16"><path d="M203.585 216.874s15.92-20.8 31.957 0l-.116-6.275-5.113-5.694-10.575-3.95-8.135 2.206-5.578 5.114-2.44 4.648v3.951Z" id="prefix-Qtv-Fill-55" fill="#E39433"/></svg></svg><svg height="38" version="1.1" width="38" xmlns="http://www.w3.org/2000/svg" x="201" y="199" preserveAspectRatio="none" transform="matrix(1,0,0,1,0,0)"><desc>Created with Snap</desc><defs/><svg xmlns="http://www.w3.org/2000/svg" viewBox="201 199 38 38"><path d="M219.737 198.852c-10.402 0-18.835 8.433-18.835 18.836 0 10.402 8.433 18.835 18.835 18.835 10.403 0 18.836-8.433 18.836-18.835 0-10.403-8.433-18.836-18.836-18.836Zm0 4.203c8.082 0 14.633 6.551 14.633 14.633 0 8.081-6.551 14.632-14.633 14.632-8.081 0-14.632-6.55-14.632-14.632s6.551-14.633 14.632-14.633Z" id="prefix-4iD-Stroke-57" fill="#1A0507" fill-rule="nonzero"/></svg></svg><svg height="33" version="1.1" width="33" xmlns="http://www.w3.org/2000/svg" x="363" y="201" preserveAspectRatio="none" transform="matrix(1,0,0,1,0,0)"><desc>Created with Snap</desc><defs/><svg xmlns="http://www.w3.org/2000/svg" viewBox="363 201 33 33"><path d="M396.14 217.688c0 9.242-7.491 16.734-16.733 16.734s-16.734-7.492-16.734-16.734 7.492-16.734 16.734-16.734 16.734 7.492 16.734 16.734" id="prefix-_Ik-Fill-59" fill="#FBFCFA"/></svg></svg><svg height="16" version="1.1" width="32" xmlns="http://www.w3.org/2000/svg" x="363" y="201" preserveAspectRatio="none" transform="matrix(1,0,0,1,0,0)"><desc>Created with Snap</desc><defs/><svg xmlns="http://www.w3.org/2000/svg" viewBox="363 201 32 16"><path d="M363.254 216.874s15.92-20.8 31.957 0l-.116-6.275-5.113-5.694-10.575-3.95-8.135 2.206-5.578 5.114-2.44 4.648v3.951Z" id="prefix-Ths-Fill-61" fill="#E39433"/></svg></svg><svg height="38" version="1.1" width="38" xmlns="http://www.w3.org/2000/svg" x="361" y="199" preserveAspectRatio="none" transform="matrix(1,0,0,1,0,0)"><desc>Created with Snap</desc><defs/><svg xmlns="http://www.w3.org/2000/svg" viewBox="361 199 38 38"><path d="M379.407 198.852c-10.403 0-18.836 8.433-18.836 18.836 0 10.402 8.433 18.835 18.836 18.835 10.402 0 18.835-8.433 18.835-18.835 0-10.403-8.433-18.836-18.835-18.836Zm0 4.203c8.081 0 14.632 6.551 14.632 14.633 0 8.081-6.55 14.632-14.632 14.632s-14.633-6.55-14.633-14.632 6.551-14.633 14.633-14.633Z" id="prefix-BYe-Stroke-63" fill="#1A0507" fill-rule="nonzero"/></svg></svg></g>
            <g id="icon_name_and_slogan_gap">
            </g>
            <g class="name_and_slogan" id="name_and_slogan_id">
              <g class="name"><path d="M264.8 276.5 Q267.4 276.5 268.5 278.5 L268.5 278.9 Q268.2 279.5 267.2 279.5 Q265 278.5 264.4 278.5 L263.6 278.5 Q261.2 278.5 260.7 281.6 L260.7 282.6 Q260.7 283.9 268 284.8 Q270.9 286 270.9 289.3 Q269.5 294.2 265.8 294.2 Q265.8 294.4 264.8 294.6 Q257.9 293.1 257.9 291.8 Q257.3 291.8 257.2 289.3 Q257.4 287.9 257.9 287.9 L258 287.9 Q260 291.4 261.1 291.4 L263.6 291.4 Q266.1 291.4 266.8 287.5 Q266.8 286.4 262.5 285.9 Q258.5 283.8 258.5 282.2 Q258.5 278.3 262.9 276.7 Q264.1 276.5 264.8 276.5 Z M275.3 270.7 Q276.2 270.7 277.4 272.5 Q277.1 274.7 275.9 274.7 Q274.4 274.7 273.4 272.3 Q273.7 271.4 275.3 270.7 Z M274.9 277.5 Q275 277.5 275.5 277.7 L276.7 277.5 Q277.2 277.6 278.1 278.6 L277.8 280.4 L277.8 285.6 Q277.8 286.6 278.3 287.7 Q278.1 289.7 278.1 291.3 L278.1 291.9 L278.4 292.4 Q278 294.4 277.3 294.5 Q274.8 294.5 274.5 290.6 Q274.5 289.8 274.4 289.5 L274.5 288.8 Q274.4 283.4 274.4 280.8 L274.2 279.1 Q274.7 277.5 274.9 277.5 Z M289.7 276.8 Q290.2 276.8 293.4 277.4 L294.6 277.4 Q296.2 277.4 297 286.4 Q297.3 289.3 297.4 289.5 Q297.2 289.8 297.2 290.2 Q297.2 290.7 297.4 291.5 Q297.4 300.9 291.8 302.7 L284.8 302.7 Q283 302.7 281.6 300.5 Q281.6 299.2 282.2 299.1 L282.4 299.1 Q284.1 300.7 286.3 300.7 Q291.9 300.7 293.3 293.6 L293.1 293.6 L288.8 294.9 Q281.5 293.9 281.5 289.5 Q280.9 288.4 280.9 285.9 Q280.9 280.2 285.9 277.8 Q287.9 276.8 289.5 276.8 L289.7 276.8 Z M283.3 286.1 Q283.3 291.5 288.1 292.3 L289.2 292.3 Q291.1 292.3 293.7 289.1 L293.8 288.7 Q293.8 278.5 292.8 278.5 Q291.5 278.4 290.7 278.3 Q290 278.2 289.7 278.2 Q286.1 278.2 283.8 282.8 Q283.3 284 283.3 286.1 Z M307.8 275.3 Q313.7 275.3 317.2 279.3 Q318.1 282.5 318.1 286.1 Q316.5 292.6 314.3 292.6 Q312.9 293.6 310.5 294.1 Q304.5 294.1 300.1 287.9 Q300.1 287.5 299.9 286.5 Q299.9 278.5 305.1 276 L307.8 275.3 Z M307.1 278.6 Q303.9 278.6 302.6 285.6 L302.6 286.2 Q304.4 291.2 308.9 291.2 Q314.3 290 314.3 286.1 L314.3 282.6 Q314.3 278.9 309.3 278.2 L308.7 278.6 L307.1 278.6 Z M323 276.6 Q324.7 276.8 324.7 278.1 Q323.5 280.8 323.6 282.6 Q323.9 290.5 325.8 290.5 L325.9 290.5 Q330.1 290.5 331.5 287.3 Q332.4 285.3 333 283 Q333.6 280.7 333.9 278.1 Q335.3 276.8 336.2 276.8 Q337 277.9 337.1 277.9 Q336.5 279.5 336.5 282.3 Q336.5 283.3 336.7 284.7 Q336.5 286.3 336.5 288.8 Q336.5 290.2 338 293.5 Q338 293.9 337.5 293.9 Q336.4 293.9 333.4 290.7 Q330 293.3 326.8 293.3 L326.4 293.3 Q324.2 293.3 321.2 289.7 Q320.5 286.6 320.6 286.2 Q321.4 279.7 321 277.4 L322.5 276.6 L323 276.6 Z" style="" fill="#fefefe" transform="matrix(1,0,0,1,0,0)"/></g>
              <g class="slogan"><path d="M277.2 352.2 Q276.7 352.2 276.2 352.1 Q275.7 352.1 275.2 352 Q274.8 352 274.5 351.9 Q274.1 351.8 273.9 351.7 L273.9 350.4 Q274.2 350.5 274.5 350.6 Q274.9 350.7 275.3 350.7 Q275.8 350.8 276.2 350.9 Q276.7 350.9 277.2 350.9 Q278.5 350.9 279.1 350.5 Q279.7 350.1 279.7 349 Q279.7 348.5 279.6 348.2 Q279.5 347.8 279.2 347.6 Q279 347.3 278.5 347.2 Q278 347 277.2 346.8 Q276.3 346.6 275.7 346.4 Q275.1 346.1 274.8 345.8 Q274.4 345.5 274.2 345 Q274.1 344.5 274.1 343.7 Q274.1 342.2 275 341.5 Q275.9 340.7 277.8 340.7 Q278.2 340.7 278.6 340.8 Q279 340.8 279.4 340.8 Q279.7 340.9 280 341 Q280.4 341 280.5 341.1 L280.5 342.4 Q280.1 342.2 279.3 342.1 Q278.5 342 277.8 342 Q277.2 342 276.8 342.1 Q276.3 342.1 276.1 342.3 Q275.8 342.5 275.6 342.9 Q275.5 343.2 275.5 343.7 Q275.5 344.1 275.6 344.4 Q275.6 344.7 275.9 344.9 Q276.1 345.1 276.6 345.3 Q277 345.4 277.8 345.6 Q278.7 345.8 279.3 346.1 Q280 346.3 280.4 346.7 Q280.8 347.1 281 347.6 Q281.1 348.2 281.1 349 Q281.1 350.6 280.1 351.4 Q279.1 352.2 277.2 352.2 Z M286.2 341.8 Q285.8 341.8 285.6 341.6 Q285.4 341.5 285.4 341 Q285.4 340.4 285.6 340.3 Q285.8 340.1 286.2 340.1 Q286.6 340.1 286.8 340.3 Q287 340.4 287 341 Q287 341.5 286.8 341.6 Q286.6 341.8 286.2 341.8 Z M285.5 343.4 L286.9 343.4 L286.9 352 L285.5 352 L285.5 343.4 Z M299.1 343.4 L299.1 351.4 Q299.1 353.2 298 354.2 Q297 355.2 294.8 355.2 Q294.3 355.2 293.7 355.1 Q293.2 355.1 292.8 355 L292.8 353.8 Q293.7 354 294.9 354 Q296.3 354 297 353.4 Q297.7 352.7 297.7 351.2 L297.7 350.4 Q297.4 351.2 296.8 351.6 Q296.1 352 294.9 352 Q293.8 352 293.1 351.7 Q292.4 351.4 292 350.8 Q291.6 350.2 291.5 349.4 Q291.3 348.6 291.3 347.6 Q291.3 346.7 291.5 345.9 Q291.6 345.1 292 344.5 Q292.4 343.9 293.1 343.6 Q293.8 343.2 294.9 343.2 Q295.5 343.2 296 343.3 Q296.5 343.5 296.8 343.7 Q297.1 343.9 297.4 344.3 Q297.6 344.6 297.7 345 L297.7 343.4 L299.1 343.4 Z M295.1 350.8 Q295.9 350.8 296.4 350.6 Q296.9 350.4 297.2 350 Q297.5 349.6 297.6 349 Q297.7 348.4 297.7 347.6 Q297.7 346.9 297.6 346.2 Q297.5 345.6 297.2 345.2 Q296.9 344.8 296.4 344.6 Q295.9 344.4 295.1 344.4 Q294.3 344.4 293.8 344.6 Q293.4 344.9 293.1 345.3 Q292.9 345.8 292.8 346.4 Q292.8 347 292.8 347.6 Q292.8 348.3 292.9 348.9 Q292.9 349.5 293.2 349.9 Q293.4 350.3 293.9 350.6 Q294.3 350.8 295.1 350.8 Z M307.5 352.2 Q306.5 352.2 305.8 351.9 Q305 351.7 304.5 351.2 Q304 350.7 303.7 349.8 Q303.5 349 303.5 347.7 Q303.5 346.4 303.7 345.5 Q304 344.7 304.5 344.1 Q305 343.6 305.8 343.4 Q306.5 343.2 307.5 343.2 Q308.4 343.2 309.2 343.4 Q309.9 343.6 310.4 344.1 Q310.9 344.7 311.2 345.5 Q311.4 346.4 311.4 347.7 Q311.4 349 311.2 349.8 Q310.9 350.7 310.4 351.2 Q309.9 351.7 309.2 351.9 Q308.4 352.2 307.5 352.2 Z M307.5 351 Q308.2 351 308.7 350.8 Q309.2 350.7 309.5 350.3 Q309.8 349.9 309.9 349.3 Q310 348.6 310 347.7 Q310 346.7 309.9 346.1 Q309.7 345.5 309.4 345.1 Q309.1 344.7 308.7 344.5 Q308.2 344.4 307.5 344.4 Q306.7 344.4 306.3 344.5 Q305.8 344.7 305.5 345.1 Q305.2 345.5 305.1 346.1 Q304.9 346.7 304.9 347.7 Q304.9 348.6 305.1 349.3 Q305.2 349.9 305.5 350.3 Q305.8 350.7 306.3 350.8 Q306.8 351 307.5 351 Z M322.8 343.4 L322.8 352 L321.6 352 L321.4 350.8 Q321.2 351.2 320.9 351.5 Q320.6 351.7 320.3 351.9 Q319.9 352 319.5 352.1 Q319.1 352.2 318.7 352.2 Q317.8 352.2 317.3 352 Q316.7 351.8 316.4 351.4 Q316.1 351 315.9 350.5 Q315.8 350 315.8 349.3 L315.8 343.4 L317.2 343.4 L317.2 348.8 Q317.2 349.3 317.2 349.7 Q317.3 350.1 317.5 350.4 Q317.7 350.7 318 350.8 Q318.3 350.9 318.8 350.9 Q319.2 350.9 319.6 350.9 Q320 350.8 320.3 350.6 Q320.7 350.5 320.9 350.1 Q321.2 349.8 321.4 349.2 L321.4 343.4 L322.8 343.4 Z" style="" fill="#7d564e" transform="matrix(1,0,0,1,0,0)"/></g>
            </g>
            <g class="border">
            </g>
          </g>
          <defs id="defs">
            <mask xmlns="http://www.w3.org/2000/svg" id="mask">
                <rect id="showAll" fill="white" x="168" y="88" width="263" height="237"/>
                <rect id="hideNameBg" fill="black" x="0" y="0" width="0" height="0" stroke-width="2" stroke="black"/>
                <rect id="hideSloganBg" fill="black" x="0" y="0" width="0" height="0" stroke-width="2" stroke="black"/>
            </mask>
          
          </defs>
        </g>
        </svg>